<?xml version="1.0" encoding="UTF-8" standalone="no"?>
<!-- Creator: fig2dev Version 3.2 Patchlevel 5d -->

<!-- CreationDate: Tue May  8 14:42:37 2012 -->

<!-- Magnification: 0.084 -->

<svg
   xmlns:dc="http://purl.org/dc/elements/1.1/"
   xmlns:cc="http://creativecommons.org/ns#"
   xmlns:rdf="http://www.w3.org/1999/02/22-rdf-syntax-ns#"
   xmlns:svg="http://www.w3.org/2000/svg"
   xmlns="http://www.w3.org/2000/svg"
   xmlns:sodipodi="http://sodipodi.sourceforge.net/DTD/sodipodi-0.dtd"
   xmlns:inkscape="http://www.inkscape.org/namespaces/inkscape"
   width="0.3in"
   height="0.2in"
   viewBox="33 34 325 264"
   id="svg2"
   version="1.1"
   inkscape:version="0.48.3.1 r9886"
   sodipodi:docname="attention.svg">
  <metadata
     id="metadata16">
    <rdf:RDF>
      <cc:Work
         rdf:about="">
        <dc:format>image/svg+xml</dc:format>
        <dc:type
           rdf:resource="http://purl.org/dc/dcmitype/StillImage" />
      </cc:Work>
    </rdf:RDF>
  </metadata>
  <defs
     id="defs14" />
  <sodipodi:namedview
     pagecolor="#ffffff"
     bordercolor="#666666"
     borderopacity="1"
     objecttolerance="10"
     gridtolerance="10"
     guidetolerance="10"
     inkscape:pageopacity="0"
     inkscape:pageshadow="2"
     inkscape:window-width="1598"
     inkscape:window-height="948"
     id="namedview12"
     showgrid="false"
     inkscape:zoom="10.74074"
     inkscape:cx="13.500001"
     inkscape:cy="9"
     inkscape:window-x="0"
     inkscape:window-y="0"
     inkscape:window-maximized="0"
     inkscape:current-layer="svg2" />
  <g
     style="stroke-width:.025in; fill:none"
     id="g4">
    <!-- Line -->
    <polygon
       points="98,296 101,296 104,296 108,296 111,297 114,297 118,297 121,297 125,297 129,297 133,297 137,297 141,297 145,297 150,297 154,297 158,297 163,297 168,297 172,297 177,297 182,297 186,298 191,298 196,298 201,298 206,298 210,297 215,297 220,297 225,297 229,297 234,297 238,297 243,297 247,297 251,297 255,297 259,297 263,297 267,297 271,297 274,297 278,297 281,297 284,296 288,296 291,296 294,296 299,296 304,296 308,295 313,295 317,295 321,295 325,294 328,294 332,294 335,293 337,293 340,292 343,292 345,291 347,291 348,290 350,290 351,289 352,288 353,288 354,287 355,286 355,286 356,285 356,284 357,284 357,283 357,282 357,281 358,280 358,279 358,278 358,277 357,276 357,274 357,273 356,271 355,269 355,267 354,265 353,262 352,260 350,257 349,254 347,251 346,248 344,245 342,242 340,238 338,234 335,230 333,226 331,224 330,221 328,219 326,216 325,213 323,210 321,207 319,204 317,201 315,198 313,195 311,191 309,188 306,185 304,181 302,177 299,174 297,170 295,166 292,162 290,159 287,155 285,151 282,147 280,143 277,140 275,136 272,132 270,129 267,125 265,121 263,118 260,114 258,111 256,108 254,105 252,102 249,99 248,96 246,93 244,90 242,87 240,85 238,82 237,80 235,78 232,74 230,70 227,67 225,63 223,60 221,58 219,55 217,52 215,50 213,48 211,46 210,44 208,43 207,41 206,40 204,39 203,38 202,37 201,36 200,36 200,36 199,35 198,35 197,35 197,35 196,35 195,35 195,35 194,35 193,35 193,36 192,36 191,36 190,37 189,38 188,39 186,40 185,41 184,43 182,44 181,46 179,48 177,50 175,52 174,55 172,58 169,60 167,63 165,67 162,70 160,74 157,78 155,80 154,82 152,85 150,87 148,90 146,93 145,96 143,99 141,102 138,105 136,108 134,111 132,114 130,118 127,121 125,125 122,129 120,132 118,136 115,140 112,143 110,147 108,151 105,155 102,159 100,162 98,166 95,170 93,174 90,177 88,181 86,185 83,188 81,191 79,195 77,198 75,201 73,204 71,207 69,210 67,213 66,216 64,219 62,221 61,224 59,226 57,230 54,234 52,238 50,242 48,245 46,248 45,251 43,254 42,257 40,260 39,262 38,265 37,267 37,269 36,271 35,273 35,274 35,276 35,277 34,278 34,279 35,280 35,281 35,282 35,283 35,284 36,284 36,285 37,286 37,286 38,287 39,288 40,288 41,289 42,290 44,290 46,291 47,291 50,292 52,292 55,293 57,293 60,294 64,294 67,294 71,295 75,295 79,295 84,295 88,296 93,296 98,296 "
       style="stroke:#ff0000;stroke-width:1; stroke-linejoin:bevel; stroke-linecap:butt; fill:#ff0000; "
       id="polygon6" />
    <!-- Line -->
    <polygon
       points="59,273 59,273 59,274 60,274 60,274 61,275 62,275 62,275 64,276 65,276 66,276 68,277 70,277 72,277 74,277 76,278 79,278 82,278 85,278 89,278 93,278 97,278 101,278 105,279 110,279 113,279 116,279 119,279 122,279 126,279 129,279 132,279 136,279 140,279 144,279 148,279 152,279 156,279 160,279 164,279 169,279 173,279 178,279 182,279 187,279 191,279 196,279 201,279 205,279 210,279 214,279 219,279 223,279 228,279 232,279 236,279 240,279 244,279 248,279 252,279 256,279 260,279 263,279 267,279 270,279 273,279 276,279 279,279 282,279 287,279 291,278 295,278 299,278 303,278 307,278 310,278 313,278 316,278 318,277 321,277 323,277 324,277 326,276 327,276 329,276 330,275 331,275 331,275 332,274 332,274 333,274 333,273 333,273 334,272 334,272 334,271 334,271 334,270 334,269 334,268 334,267 334,266 333,265 333,263 332,261 332,259 331,257 329,255 328,253 327,250 325,247 324,244 322,241 320,237 317,234 315,230 313,226 311,223 310,221 308,218 306,216 304,213 303,210 301,207 299,204 297,201 295,198 293,195 290,191 288,188 286,184 283,181 281,177 279,174 276,170 274,166 271,162 269,159 266,155 263,151 261,147 258,144 256,140 253,136 251,133 249,129 246,126 244,122 242,119 239,116 237,113 235,110 233,107 231,104 229,101 227,98 226,96 224,93 222,91 221,89 219,86 218,84 216,82 215,80 214,78 212,77 211,75 210,73 209,72 208,70 207,69 206,68 205,67 204,66 203,65 202,64 201,63 200,63 199,62 198,62 197,62 196,62 195,62 194,62 193,62 192,63 191,63 190,64 189,65 188,66 187,67 186,68 185,69 184,70 183,72 182,73 181,75 180,77 178,78 177,80 176,82 174,84 173,86 171,89 170,91 168,93 166,96 165,98 163,101 161,104 159,107 157,110 155,113 153,116 150,119 148,122 146,126 144,129 141,133 139,136 136,140 134,144 131,147 129,151 126,155 124,159 121,162 119,166 116,170 114,174 111,177 109,181 106,184 104,188 102,191 100,195 97,198 95,201 93,204 91,207 89,210 88,213 86,216 84,218 83,221 81,223 80,226 77,230 75,234 72,237 70,241 68,244 67,247 65,250 64,253 63,255 61,257 61,259 60,261 59,263 59,265 58,266 58,267 58,268 58,269 58,270 58,271 58,271 58,272 58,272 59,273 "
       style="stroke:#ff0000;stroke-width:1; stroke-linejoin:bevel; stroke-linecap:butt; fill:#ffffff; "
       id="polygon8" />
    <!-- Text -->
    <text
       xml:space="preserve"
       x="200"
       y="249"
       font-style="normal"
       font-weight="normal"
       font-size="91"
       id="text10"
       style="font-size:91px;font-style:normal;font-weight:normal;text-anchor:middle;fill:#000000;font-family:Helvetica Narrow">\bf !</text>
  </g>
</svg>
